<?xml version="1.0" standalone="no"?><!DOCTYPE svg PUBLIC "-//W3C//DTD SVG 1.1//EN" "http://www.w3.org/Graphics/SVG/1.1/DTD/svg11.dtd"><svg t="1758162834395" class="icon" viewBox="0 0 1024 1024" version="1.1" xmlns="http://www.w3.org/2000/svg" p-id="6843" xmlns:xlink="http://www.w3.org/1999/xlink" width="200" height="200"><path d="M719.52384 831.52896c-12.288 0-24.576-4.68992-33.93536-14.04928-18.7392-18.7392-18.7392-49.13152 0-67.8912 131.01056-131.01056 131.01056-344.1664 0-475.17696-18.7392-18.7392-18.7392-49.13152 0-67.8912s49.13152-18.7392 67.8912 0c81.59232 81.59232 126.52544 190.07488 126.52544 305.4592s-44.93312 223.86688-126.52544 305.47968c-9.37984 9.37984-21.64736 14.06976-33.93536 14.06976l0 0zM549.02784 741.02784c-12.288 0-24.576-4.68992-33.93536-14.04928-18.7392-18.7392-18.7392-49.13152 0-67.87072 81.1008-81.1008 81.1008-213.05344 0-294.15424-18.7392-18.7392-18.7392-49.13152 0-67.8912s49.13152-18.7392 67.8912 0c118.53824 118.53824 118.53824 311.3984 0 429.91616-9.37984 9.35936-21.64736 14.04928-33.93536 14.04928z" fill="#444444" p-id="6844"></path><path d="M416.01024 960c-8.33536 0-16.50688-3.25632-22.6304-9.37984l-246.62016-246.62016-114.74944 0c-17.67424 0-32.01024-14.336-32.01024-32.01024l0-320c0-17.67424 14.336-32.01024 32.01024-32.01024l114.74944 0 246.62016-246.62016c9.15456-9.15456 22.91712-11.89888 34.87744-6.94272s19.7632 16.62976 19.7632 29.57312l0 832c0 12.94336-7.80288 24.61696-19.7632 29.57312-3.95264 1.6384-8.11008 2.43712-12.24704 2.43712z" fill="#444444" p-id="6845"></path></svg>