<?xml version="1.0" standalone="no"?><!DOCTYPE svg PUBLIC "-//W3C//DTD SVG 1.1//EN" "http://www.w3.org/Graphics/SVG/1.1/DTD/svg11.dtd"><svg t="1758162825902" class="icon" viewBox="0 0 1024 1024" version="1.1" xmlns="http://www.w3.org/2000/svg" p-id="6692" xmlns:xlink="http://www.w3.org/1999/xlink" width="200" height="200"><path d="M960 619.15136l0 84.84864-84.84864 0-107.15136-107.15136-107.15136 107.15136-84.84864 0 0-84.84864 107.15136-107.15136-107.15136-107.15136 0-84.84864 84.84864 0 107.15136 107.15136 107.15136-107.15136 84.84864 0 0 84.84864-107.15136 107.15136 107.15136 107.15136z" fill="#444444" p-id="6693"></path><path d="M416.01024 960c-8.33536 0-16.50688-3.25632-22.6304-9.37984l-246.62016-246.62016-114.74944 0c-17.67424 0-32.01024-14.336-32.01024-32.01024l0-320c0-17.67424 14.336-32.01024 32.01024-32.01024l114.74944 0 246.62016-246.62016c9.15456-9.15456 22.91712-11.89888 34.87744-6.94272s19.7632 16.62976 19.7632 29.57312l0 832c0 12.94336-7.80288 24.61696-19.7632 29.57312-3.95264 1.6384-8.11008 2.43712-12.24704 2.43712z" fill="#444444" p-id="6694"></path></svg>